<svg width="168" height="35" viewBox="0 0 168 35" fill="none" xmlns="http://www.w3.org/2000/svg">
<path fill-rule="evenodd" clip-rule="evenodd" d="M24.0834 11.6667C24.0834 10.8613 24.7176 10.2083 25.5 10.2083H26.9167C28.7953 10.2083 30.597 10.9766 31.9254 12.344C33.2537 13.7115 34 15.5661 34 17.5C34 19.4339 33.2537 21.2885 31.9254 22.656C30.597 24.0234 28.7953 24.7917 26.9167 24.7917H25.5C24.7176 24.7917 24.0834 24.1388 24.0834 23.3333C24.0834 22.5279 24.7176 21.875 25.5 21.875H26.9167C28.0439 21.875 29.1249 21.4141 29.9219 20.5936C30.7189 19.7731 31.1667 18.6603 31.1667 17.5C31.1667 16.3397 30.7189 15.2269 29.9219 14.4064C29.1249 13.5859 28.0439 13.125 26.9167 13.125H25.5C24.7176 13.125 24.0834 12.4721 24.0834 11.6667Z" fill="#E0E0E0"/>
<path fill-rule="evenodd" clip-rule="evenodd" d="M1.41669 11.6667C1.41669 10.8613 2.05095 10.2083 2.83335 10.2083H25.5C26.2824 10.2083 26.9167 10.8613 26.9167 11.6667V24.7917C26.9167 26.7255 26.1704 28.5802 24.842 29.9477C23.5136 31.3151 21.712 32.0833 19.8334 32.0833H8.50002C6.6214 32.0833 4.81973 31.3151 3.49135 29.9477C2.16296 28.5802 1.41669 26.7255 1.41669 24.7917V11.6667ZM4.25002 13.125V24.7917C4.25002 25.952 4.69779 27.0648 5.49482 27.8853C6.29185 28.7057 7.37285 29.1667 8.50002 29.1667H19.8334C20.9605 29.1667 22.0415 28.7057 22.8386 27.8853C23.6356 27.0648 24.0834 25.952 24.0834 24.7917V13.125H4.25002Z" fill="#E0E0E0"/>
<path fill-rule="evenodd" clip-rule="evenodd" d="M8.50002 0C9.28242 0 9.91669 0.652918 9.91669 1.45833V5.83333C9.91669 6.63875 9.28242 7.29167 8.50002 7.29167C7.71762 7.29167 7.08335 6.63875 7.08335 5.83333V1.45833C7.08335 0.652918 7.71762 0 8.50002 0Z" fill="#E0E0E0"/>
<path fill-rule="evenodd" clip-rule="evenodd" d="M14.1667 0C14.9491 0 15.5834 0.652918 15.5834 1.45833V5.83333C15.5834 6.63875 14.9491 7.29167 14.1667 7.29167C13.3843 7.29167 12.75 6.63875 12.75 5.83333V1.45833C12.75 0.652918 13.3843 0 14.1667 0Z" fill="#E0E0E0"/>
<path fill-rule="evenodd" clip-rule="evenodd" d="M19.8334 0C20.6158 0 21.25 0.652918 21.25 1.45833V5.83333C21.25 6.63875 20.6158 7.29167 19.8334 7.29167C19.0509 7.29167 18.4167 6.63875 18.4167 5.83333V1.45833C18.4167 0.652918 19.0509 0 19.8334 0Z" fill="#E0E0E0"/>
<path d="M53.904 28.252C52.3733 28.252 50.936 28.0467 49.592 27.636C48.2667 27.2253 47.1373 26.6373 46.204 25.872L47.436 23.24C48.4067 23.968 49.4147 24.5093 50.46 24.864C51.524 25.2 52.6813 25.368 53.932 25.368C55.3133 25.368 56.3773 25.1253 57.124 24.64C57.8893 24.1547 58.272 23.4733 58.272 22.596C58.272 21.8493 57.9173 21.28 57.208 20.888C56.5173 20.4773 55.3693 20.0947 53.764 19.74C51.2627 19.1987 49.4427 18.4987 48.304 17.64C47.1653 16.7813 46.596 15.5307 46.596 13.888C46.596 12.712 46.9133 11.6667 47.548 10.752C48.1827 9.83733 49.0787 9.11867 50.236 8.596C51.412 8.07333 52.7653 7.812 54.296 7.812C55.696 7.812 57.0213 8.02667 58.272 8.456C59.5413 8.86667 60.5773 9.44533 61.38 10.192L60.176 12.824C58.4027 11.4053 56.4427 10.696 54.296 10.696C53.008 10.696 51.9907 10.9667 51.244 11.508C50.4973 12.0307 50.124 12.7493 50.124 13.664C50.124 14.448 50.4507 15.0453 51.104 15.456C51.776 15.8667 52.9147 16.2493 54.52 16.604C56.1813 16.996 57.5347 17.4253 58.58 17.892C59.6253 18.34 60.428 18.928 60.988 19.656C61.548 20.3653 61.828 21.2613 61.828 22.344C61.828 23.5387 61.5107 24.584 60.876 25.48C60.2413 26.3573 59.3267 27.0387 58.132 27.524C56.9373 28.0093 55.528 28.252 53.904 28.252ZM79.0075 13.86V28H75.5635V25.732C75.1342 26.516 74.5182 27.132 73.7155 27.58C72.9129 28.0093 71.9982 28.224 70.9715 28.224C69.7395 28.224 68.6475 27.9253 67.6955 27.328C66.7435 26.7307 66.0062 25.8813 65.4835 24.78C64.9609 23.6787 64.6995 22.4 64.6995 20.944C64.6995 19.488 64.9609 18.2 65.4835 17.08C66.0249 15.9413 66.7715 15.064 67.7235 14.448C68.6755 13.8133 69.7582 13.496 70.9715 13.496C71.9982 13.496 72.9129 13.72 73.7155 14.168C74.5182 14.5973 75.1342 15.204 75.5635 15.988V13.86H79.0075ZM71.9235 25.48C73.0809 25.48 73.9769 25.0787 74.6115 24.276C75.2462 23.4733 75.5635 22.344 75.5635 20.888C75.5635 19.3947 75.2462 18.2467 74.6115 17.444C73.9769 16.6413 73.0715 16.24 71.8955 16.24C70.7382 16.24 69.8329 16.66 69.1795 17.5C68.5449 18.3213 68.2275 19.4693 68.2275 20.944C68.2275 22.4 68.5449 23.52 69.1795 24.304C69.8329 25.088 70.7475 25.48 71.9235 25.48ZM90.0715 10.164C88.5595 10.164 87.8035 10.9947 87.8035 12.656V13.86H90.9675V16.492H87.8035V28H84.3035V16.492H81.6155V13.86H84.3035V12.488C84.3035 10.808 84.7235 9.52 85.5635 8.624C86.4221 7.70933 87.6448 7.252 89.2315 7.252C90.1088 7.252 90.8461 7.364 91.4435 7.588V10.36C90.9208 10.2293 90.4635 10.164 90.0715 10.164ZM106.46 21.112H96.716C96.7907 22.624 97.164 23.744 97.836 24.472C98.5267 25.1813 99.544 25.536 100.888 25.536C102.437 25.536 103.875 25.032 105.2 24.024L106.208 26.432C105.536 26.9733 104.705 27.412 103.716 27.748C102.745 28.0653 101.756 28.224 100.748 28.224C98.4333 28.224 96.6133 27.5707 95.288 26.264C93.9627 24.9573 93.3 23.1653 93.3 20.888C93.3 19.4507 93.5893 18.172 94.168 17.052C94.7467 15.932 95.5587 15.064 96.604 14.448C97.6493 13.8133 98.8347 13.496 100.16 13.496C102.101 13.496 103.632 14.1307 104.752 15.4C105.891 16.6507 106.46 18.3773 106.46 20.58V21.112ZM100.244 16.016C99.3107 16.016 98.5453 16.296 97.948 16.856C97.3693 17.3973 96.996 18.1907 96.828 19.236H103.408C103.296 18.172 102.969 17.3693 102.428 16.828C101.905 16.2867 101.177 16.016 100.244 16.016Z" fill="#F4F6FF"/>
<path d="M108.024 30.044C108.976 30.1747 109.648 30.24 110.04 30.24C110.955 30.24 111.58 30.016 111.916 29.568C112.252 29.12 112.42 28.3173 112.42 27.16V8.064H116.032V27.16C116.032 29.288 115.631 30.828 114.828 31.78C114.025 32.7507 112.653 33.236 110.712 33.236C109.816 33.236 108.92 33.1613 108.024 33.012V30.044ZM127.073 28.224C125.636 28.224 124.366 27.9253 123.265 27.328C122.182 26.7307 121.342 25.8813 120.745 24.78C120.166 23.66 119.877 22.3533 119.877 20.86C119.877 19.3667 120.166 18.0693 120.745 16.968C121.342 15.848 122.182 14.9893 123.265 14.392C124.366 13.7947 125.636 13.496 127.073 13.496C128.492 13.496 129.742 13.7947 130.825 14.392C131.908 14.9893 132.738 15.848 133.317 16.968C133.914 18.0693 134.213 19.3667 134.213 20.86C134.213 22.3533 133.914 23.66 133.317 24.78C132.738 25.8813 131.908 26.7307 130.825 27.328C129.742 27.9253 128.492 28.224 127.073 28.224ZM127.045 25.48C128.24 25.48 129.145 25.0973 129.761 24.332C130.396 23.548 130.713 22.3907 130.713 20.86C130.713 19.348 130.396 18.2 129.761 17.416C129.126 16.6133 128.23 16.212 127.073 16.212C125.897 16.212 124.992 16.6133 124.357 17.416C123.722 18.2 123.405 19.348 123.405 20.86C123.405 22.3907 123.713 23.548 124.329 24.332C124.964 25.0973 125.869 25.48 127.045 25.48ZM145.855 13.496C147.087 13.496 148.17 13.804 149.103 14.42C150.055 15.0173 150.793 15.8667 151.315 16.968C151.838 18.0693 152.099 19.348 152.099 20.804C152.099 22.26 151.829 23.5573 151.287 24.696C150.765 25.816 150.027 26.684 149.075 27.3C148.142 27.916 147.069 28.224 145.855 28.224C144.81 28.224 143.877 28 143.055 27.552C142.253 27.104 141.646 26.4787 141.235 25.676V28H137.791V7.392H141.263V15.988C141.693 15.204 142.309 14.5973 143.111 14.168C143.914 13.72 144.829 13.496 145.855 13.496ZM144.931 25.48C146.089 25.48 146.985 25.0693 147.619 24.248C148.254 23.4267 148.571 22.2787 148.571 20.804C148.571 19.348 148.254 18.228 147.619 17.444C146.985 16.6413 146.079 16.24 144.903 16.24C143.727 16.24 142.822 16.6413 142.187 17.444C141.553 18.2467 141.235 19.3853 141.235 20.86C141.235 22.3533 141.553 23.5013 142.187 24.304C142.822 25.088 143.737 25.48 144.931 25.48ZM160.895 28.224C158.337 28.224 156.303 27.6267 154.791 26.432L155.771 23.968C157.283 25.088 159.009 25.648 160.951 25.648C161.791 25.648 162.435 25.508 162.883 25.228C163.349 24.948 163.583 24.556 163.583 24.052C163.583 23.6227 163.424 23.2867 163.107 23.044C162.789 22.7827 162.248 22.5587 161.483 22.372L159.131 21.84C156.555 21.28 155.267 19.964 155.267 17.892C155.267 17.0333 155.509 16.2773 155.995 15.624C156.48 14.952 157.161 14.4293 158.039 14.056C158.916 13.6827 159.933 13.496 161.091 13.496C162.099 13.496 163.069 13.6547 164.003 13.972C164.936 14.2707 165.757 14.7093 166.467 15.288L165.431 17.668C164.012 16.6227 162.556 16.1 161.063 16.1C160.26 16.1 159.635 16.2493 159.187 16.548C158.739 16.8467 158.515 17.2573 158.515 17.78C158.515 18.1907 158.645 18.5173 158.907 18.76C159.187 19.0027 159.653 19.208 160.307 19.376L162.715 19.908C164.115 20.2253 165.132 20.72 165.767 21.392C166.42 22.0453 166.747 22.904 166.747 23.968C166.747 25.2747 166.224 26.3107 165.179 27.076C164.133 27.8413 162.705 28.224 160.895 28.224Z" fill="#F3C623"/>
</svg>
