<svg width="171" height="35" viewBox="0 0 171 35" fill="none" xmlns="http://www.w3.org/2000/svg">
<path fill-rule="evenodd" clip-rule="evenodd" d="M24.0834 11.6667C24.0834 10.8613 24.7176 10.2083 25.5 10.2083H26.9167C28.7953 10.2083 30.597 10.9766 31.9254 12.344C33.2537 13.7115 34 15.5661 34 17.5C34 19.4339 33.2537 21.2885 31.9254 22.656C30.597 24.0234 28.7953 24.7917 26.9167 24.7917H25.5C24.7176 24.7917 24.0834 24.1388 24.0834 23.3333C24.0834 22.5279 24.7176 21.875 25.5 21.875H26.9167C28.0439 21.875 29.1249 21.4141 29.9219 20.5936C30.7189 19.7731 31.1667 18.6603 31.1667 17.5C31.1667 16.3397 30.7189 15.2269 29.9219 14.4064C29.1249 13.5859 28.0439 13.125 26.9167 13.125H25.5C24.7176 13.125 24.0834 12.4721 24.0834 11.6667Z" fill="#E0E0E0"/>
<path fill-rule="evenodd" clip-rule="evenodd" d="M1.41669 11.6667C1.41669 10.8613 2.05095 10.2083 2.83335 10.2083H25.5C26.2824 10.2083 26.9167 10.8613 26.9167 11.6667V24.7917C26.9167 26.7255 26.1704 28.5802 24.842 29.9477C23.5136 31.3151 21.712 32.0833 19.8334 32.0833H8.50002C6.6214 32.0833 4.81973 31.3151 3.49135 29.9477C2.16296 28.5802 1.41669 26.7255 1.41669 24.7917V11.6667ZM4.25002 13.125V24.7917C4.25002 25.952 4.69779 27.0648 5.49482 27.8853C6.29185 28.7057 7.37285 29.1667 8.50002 29.1667H19.8334C20.9605 29.1667 22.0415 28.7057 22.8386 27.8853C23.6356 27.0648 24.0834 25.952 24.0834 24.7917V13.125H4.25002Z" fill="#E0E0E0"/>
<path fill-rule="evenodd" clip-rule="evenodd" d="M8.50002 0C9.28242 0 9.91669 0.652918 9.91669 1.45833V5.83333C9.91669 6.63875 9.28242 7.29167 8.50002 7.29167C7.71762 7.29167 7.08335 6.63875 7.08335 5.83333V1.45833C7.08335 0.652918 7.71762 0 8.50002 0Z" fill="#E0E0E0"/>
<path fill-rule="evenodd" clip-rule="evenodd" d="M14.1667 0C14.9491 0 15.5834 0.652918 15.5834 1.45833V5.83333C15.5834 6.63875 14.9491 7.29167 14.1667 7.29167C13.3843 7.29167 12.75 6.63875 12.75 5.83333V1.45833C12.75 0.652918 13.3843 0 14.1667 0Z" fill="#E0E0E0"/>
<path fill-rule="evenodd" clip-rule="evenodd" d="M19.8334 0C20.6158 0 21.25 0.652918 21.25 1.45833V5.83333C21.25 6.63875 20.6158 7.29167 19.8334 7.29167C19.0509 7.29167 18.4167 6.63875 18.4167 5.83333V1.45833C18.4167 0.652918 19.0509 0 19.8334 0Z" fill="#E0E0E0"/>
<path d="M47.156 8.064H60.176V10.948H50.74V16.408H59.616V19.32H50.74V28H47.156V8.064ZM76.738 13.86V28H73.294V25.732C72.8647 26.516 72.2487 27.132 71.446 27.58C70.6433 28.0093 69.7287 28.224 68.702 28.224C67.47 28.224 66.378 27.9253 65.426 27.328C64.474 26.7307 63.7367 25.8813 63.214 24.78C62.6913 23.6787 62.43 22.4 62.43 20.944C62.43 19.488 62.6913 18.2 63.214 17.08C63.7553 15.9413 64.502 15.064 65.454 14.448C66.406 13.8133 67.4887 13.496 68.702 13.496C69.7287 13.496 70.6433 13.72 71.446 14.168C72.2487 14.5973 72.8647 15.204 73.294 15.988V13.86H76.738ZM69.654 25.48C70.8113 25.48 71.7073 25.0787 72.342 24.276C72.9767 23.4733 73.294 22.344 73.294 20.888C73.294 19.3947 72.9767 18.2467 72.342 17.444C71.7073 16.6413 70.802 16.24 69.626 16.24C68.4687 16.24 67.5633 16.66 66.91 17.5C66.2753 18.3213 65.958 19.4693 65.958 20.944C65.958 22.4 66.2753 23.52 66.91 24.304C67.5633 25.088 68.478 25.48 69.654 25.48ZM90.7699 28L84.5819 21.476V28H81.1099V7.392H84.5819V20.104L90.4059 13.888H94.6339L88.2779 20.636L95.1379 28H90.7699ZM109.276 21.112H99.5324C99.6071 22.624 99.9804 23.744 100.652 24.472C101.343 25.1813 102.36 25.536 103.704 25.536C105.254 25.536 106.691 25.032 108.016 24.024L109.024 26.432C108.352 26.9733 107.522 27.412 106.532 27.748C105.562 28.0653 104.572 28.224 103.564 28.224C101.25 28.224 99.4297 27.5707 98.1044 26.264C96.7791 24.9573 96.1164 23.1653 96.1164 20.888C96.1164 19.4507 96.4057 18.172 96.9844 17.052C97.5631 15.932 98.3751 15.064 99.4204 14.448C100.466 13.8133 101.651 13.496 102.976 13.496C104.918 13.496 106.448 14.1307 107.568 15.4C108.707 16.6507 109.276 18.3773 109.276 20.58V21.112ZM103.06 16.016C102.127 16.016 101.362 16.296 100.764 16.856C100.186 17.3973 99.8124 18.1907 99.6444 19.236H106.224C106.112 18.172 105.786 17.3693 105.244 16.828C104.722 16.2867 103.994 16.016 103.06 16.016Z" fill="#F4F6FF"/>
<path d="M110.84 30.044C111.792 30.1747 112.464 30.24 112.856 30.24C113.771 30.24 114.396 30.016 114.732 29.568C115.068 29.12 115.236 28.3173 115.236 27.16V8.064H118.848V27.16C118.848 29.288 118.447 30.828 117.644 31.78C116.842 32.7507 115.47 33.236 113.528 33.236C112.632 33.236 111.736 33.1613 110.84 33.012V30.044ZM129.889 28.224C128.452 28.224 127.183 27.9253 126.081 27.328C124.999 26.7307 124.159 25.8813 123.561 24.78C122.983 23.66 122.693 22.3533 122.693 20.86C122.693 19.3667 122.983 18.0693 123.561 16.968C124.159 15.848 124.999 14.9893 126.081 14.392C127.183 13.7947 128.452 13.496 129.889 13.496C131.308 13.496 132.559 13.7947 133.641 14.392C134.724 14.9893 135.555 15.848 136.133 16.968C136.731 18.0693 137.029 19.3667 137.029 20.86C137.029 22.3533 136.731 23.66 136.133 24.78C135.555 25.8813 134.724 26.7307 133.641 27.328C132.559 27.9253 131.308 28.224 129.889 28.224ZM129.861 25.48C131.056 25.48 131.961 25.0973 132.577 24.332C133.212 23.548 133.529 22.3907 133.529 20.86C133.529 19.348 133.212 18.2 132.577 17.416C131.943 16.6133 131.047 16.212 129.889 16.212C128.713 16.212 127.808 16.6133 127.173 17.416C126.539 18.2 126.221 19.348 126.221 20.86C126.221 22.3907 126.529 23.548 127.145 24.332C127.78 25.0973 128.685 25.48 129.861 25.48ZM148.672 13.496C149.904 13.496 150.986 13.804 151.92 14.42C152.872 15.0173 153.609 15.8667 154.132 16.968C154.654 18.0693 154.916 19.348 154.916 20.804C154.916 22.26 154.645 23.5573 154.104 24.696C153.581 25.816 152.844 26.684 151.892 27.3C150.958 27.916 149.885 28.224 148.672 28.224C147.626 28.224 146.693 28 145.872 27.552C145.069 27.104 144.462 26.4787 144.052 25.676V28H140.608V7.392H144.08V15.988C144.509 15.204 145.125 14.5973 145.928 14.168C146.73 13.72 147.645 13.496 148.672 13.496ZM147.748 25.48C148.905 25.48 149.801 25.0693 150.436 24.248C151.07 23.4267 151.388 22.2787 151.388 20.804C151.388 19.348 151.07 18.228 150.436 17.444C149.801 16.6413 148.896 16.24 147.72 16.24C146.544 16.24 145.638 16.6413 145.004 17.444C144.369 18.2467 144.052 19.3853 144.052 20.86C144.052 22.3533 144.369 23.5013 145.004 24.304C145.638 25.088 146.553 25.48 147.748 25.48ZM163.711 28.224C161.154 28.224 159.119 27.6267 157.607 26.432L158.587 23.968C160.099 25.088 161.826 25.648 163.767 25.648C164.607 25.648 165.251 25.508 165.699 25.228C166.166 24.948 166.399 24.556 166.399 24.052C166.399 23.6227 166.24 23.2867 165.923 23.044C165.606 22.7827 165.064 22.5587 164.299 22.372L161.947 21.84C159.371 21.28 158.083 19.964 158.083 17.892C158.083 17.0333 158.326 16.2773 158.811 15.624C159.296 14.952 159.978 14.4293 160.855 14.056C161.732 13.6827 162.75 13.496 163.907 13.496C164.915 13.496 165.886 13.6547 166.819 13.972C167.752 14.2707 168.574 14.7093 169.283 15.288L168.247 17.668C166.828 16.6227 165.372 16.1 163.879 16.1C163.076 16.1 162.451 16.2493 162.003 16.548C161.555 16.8467 161.331 17.2573 161.331 17.78C161.331 18.1907 161.462 18.5173 161.723 18.76C162.003 19.0027 162.47 19.208 163.123 19.376L165.531 19.908C166.931 20.2253 167.948 20.72 168.583 21.392C169.236 22.0453 169.563 22.904 169.563 23.968C169.563 25.2747 169.04 26.3107 167.995 27.076C166.95 27.8413 165.522 28.224 163.711 28.224Z" fill="#F3C623"/>
</svg>
